#!OML:ASF H:\LiuWeirdWalks\Patient Classification 1\Patient 1\Session 1\male.ASF
:FULLY-SPECIFIED
:DEGREES
378
root 0.499537 17.9837 -22.0213 1.29314 7.44235 -6.11071
lowerback 5.03255 0.292965 5.40801
upperback -0.5647 0.86494 3.92036
thorax -3.39573 0.368636 0.9532
lowerneck -18.5793 0.446436 5.94066
upperneck 22.7897 0.42105 -6.05882
head 10.3858 -0.0174397 -3.1039
rclavicle -1.56046e-014 -7.95139e-015
rhumerus -39.6397 -6.91565 -76.8573
rradius 40.0344
rwrist -13.1808
rhand -17.0883 -4.41738
rfingers 7.12502
rthumb 9.1501 -34.1989
lclavicle -1.56046e-014 -7.95139e-015
lhumerus -42.1246 4.52573 80.8137
lradius 35.75
lwrist 12.5401
lhand -13.2462 0.564026
lfingers 7.12502
lthumb 12.8559 30.1481
rfemur -8.9705 -3.86368 32.3297
rtibia 24.4802
rfoot -13.8019 -12.2395
rtoes 1.82411
lfemur -24.711 -1.16423 -8.30202
ltibia 46.1576
lfoot -12.6859 6.24997
ltoes -17.5604
379
root 0.500774 17.9886 -21.9912 1.26356 7.43925 -6.11148
lowerback 5.09257 0.376356 5.46283
upperback -0.585006 0.985214 3.89875
thorax -3.44678 0.425993 0.890561
lowerneck -18.4897 0.390499 5.89974
upperneck 22.7489 0.344464 -6.00394
head 10.3484 -0.0485969 -3.08573
rclavicle 1.09332e-014 8.11041e-014
rhumerus -39.5454 -6.86604 -76.8737
rradius 40.1431
rwrist -13.2165
rhand -17.0868 -4.48428
rfingers 7.12502
rthumb 9.15155 -34.2657
lclavicle 1.09332e-014 8.11041e-014
lhumerus -42.3336 4.3892 80.8929
lradius 35.7715
lwrist 12.5267
lhand -13.2398 0.552279
lfingers 7.12502
lthumb 12.862 30.136
rfemur -8.70493 -3.86428 32.3276
rtibia 24.2268
rfoot -13.7365 -12.2493
rtoes 1.72779
lfemur -25.193 -1.25767 -8.36613
ltibia 45.1276
lfoot -12.664 6.22796
ltoes -17.4709
380
root 0.502731 17.9948 -21.9599 1.23006 7.4378 -6.08944
lowerback 5.14075 0.460746 5.50224
upperback -0.595483 1.10392 3.86919
thorax -3.48073 0.48314 0.828238
lowerneck -18.3847 0.321849 5.83841
upperneck 22.6774 0.251705 -5.93256
head 10.296 -0.0870906 -3.0594
rclavicle 3.06625e-014 4.77083e-014
rhumerus -39.4582 -6.81911 -76.8872
rradius 40.2755
rwrist -13.2737
rhand -17.0901 -4.56151
rfingers 7.12502
rthumb 9.1484 -34.3431
lclavicle 3.06625e-014 4.77083e-014
lhumerus -42.5418 4.21892 80.9918
lradius 35.7996
lwrist 12.5407
lhand -13.2151 0.556138
lfingers 7.12502
lthumb 12.8859 30.1383
rfemur -8.41047 -3.87371 32.2974
rtibia 23.9397
rfoot -13.6638 -12.258
rtoes 1.646
lfemur -25.6369 -1.3501 -8.46253
ltibia 44.0589
lfoot -12.6063 6.18174
ltoes -17.3974
381
root 0.505164 18.002 -21.9274 1.19172 7.4317 -6.06201
lowerback 5.18425 0.544182 5.53534
upperback -0.596911 1.21993 3.83906
thorax -3.5025 0.539355 0.768957
lowerneck -18.4508 0.273593 5.78286
upperneck 22.8245 0.18461 -5.86545
head 10.3572 -0.114198 -3.03963
rclavicle 2.49226e-014 2.22639e-014
rhumerus -39.3527 -6.77079 -76.9017
rradius 40.4028
rwrist -13.3427
rhand -17.0964 -4.62286
rfingers 7.12502
rthumb 9.14235 -34.4047
lclavicle 2.49226e-014 2.22639e-014
lhumerus -42.7497 4.03173 81.1039
lradius 35.837
lwrist 12.5709
lhand -13.1789 0.536198
lfingers 7.12502
lthumb 12.9207 30.1162
rfemur -8.08789 -3.87436 32.2608
rtibia 23.6164
rfoot -13.5767 -12.278
rtoes 1.56589
lfemur -26.0454 -1.43362 -8.57111
ltibia 42.9581
lfoot -12.5281 6.13089
ltoes -17.3421
382
root 0.507401 18.0098 -21.8946 1.14944 7.44013 -6.02458
lowerback 5.22684 0.617482 5.54785
upperback -0.592845 1.32081 3.81211
thorax -3.51869 0.588645 0.725525
lowerneck -18.55 0.233974 5.70718
upperneck 23.023 0.130032 -5.77749
head 10.4445 -0.134685 -3.00894
rclavicle 4.99446e-015 6.2816e-014
rhumerus -39.2319 -6.71091 -76.9133
rradius 40.5228
rwrist -13.4174
rhand -17.0961 -4.65526
rfingers 7.12502
rthumb 9.14257 -34.4371
lclavicle 4.99446e-015 6.2816e-014
lhumerus -42.962 3.84244 81.2269
lradius 35.8835
lwrist 12.6085
lhand -13.1444 0.530912
lfingers 7.12502
lthumb 12.954 30.1088
rfemur -7.74174 -3.86219 32.2174
rtibia 23.2569
rfoot -13.4744 -12.3306
rtoes 1.49779
lfemur -26.4318 -1.52126 -8.69495
ltibia 41.8343
lfoot -12.4401 6.08945
ltoes -17.4164
383
root 0.509291 18.018 -21.8615 1.10382 7.46909 -5.99017
lowerback 5.26487 0.681333 5.55566
upperback -0.57461 1.40762 3.78897
thorax -3.518 0.631563 0.689781
lowerneck -18.7718 0.200406 5.60457
upperneck 23.3396 0.0792297 -5.65259
head 10.5993 -0.151599 -2.96429
rclavicle 2.43014e-014 1.11319e-014
rhumerus -39.0886 -6.65134 -76.9233
rradius 40.636
rwrist -13.4836
rhand -17.1054 -4.63415
rfingers 7.12502
rthumb 9.13364 -34.4164
lclavicle 2.43014e-014 1.11319e-014
lhumerus -43.1577 3.63933 81.3637
lradius 35.9429
lwrist 12.6419
lhand -13.1113 0.534091
lfingers 7.12502
lthumb 12.9859 30.1099
rfemur -7.37763 -3.83245 32.1835
rtibia 22.8639
rfoot -13.3535 -12.425
rtoes 1.42851
lfemur -26.8053 -1.61283 -8.81858
ltibia 40.6984
lfoot -12.3665 6.06266
ltoes -17.5783
384
root 0.510594 18.0263 -21.8286 1.05771 7.51092 -5.97228
lowerback 5.29836 0.736048 5.56844
upperback -0.55547 1.48244 3.77393
thorax -3.51417 0.668604 0.660654
lowerneck -18.9806 0.166026 5.4859
upperneck 23.6492 0.0307273 -5.5208
head 10.7503 -0.167709 -2.91369
rclavicle 2.82026e-014 -8.74653e-015
rhumerus -38.9408 -6.57708 -76.9354
rradius 40.747
rwrist -13.547
rhand -17.1318 -4.60342
rfingers 7.12502
rthumb 9.10819 -34.3868
lclavicle 2.82026e-014 -8.74653e-015
lhumerus -43.3579 3.44404 81.5011
lradius 36.0127
lwrist 12.6756
lhand -13.0756 0.56168
lfingers 7.12502
lthumb 13.0203 30.1353
rfemur -7.00612 -3.77311 32.1763
rtibia 22.4426
rfoot -13.2058 -12.5676
rtoes 1.36825
lfemur -27.1739 -1.72177 -8.92296
ltibia 39.5633
lfoot -12.3155 6.05607
ltoes -17.7804
385
root 0.511695 18.0345 -21.7964 1.02139 7.55703 -5.96128
lowerback 5.32407 0.789059 5.5816
upperback -0.537811 1.5546 3.76278
thorax -3.50759 0.704401 0.635653
lowerneck -19.2017 0.14727 5.40233
upperneck 23.9398 -0.00133729 -5.41395
head 10.8986 -0.176263 -2.87532
rclavicle 1.64246e-014 7.15625e-015
rhumerus -38.7957 -6.50249 -76.9428
rradius 40.862
rwrist -13.5944
rhand -17.177 -4.57201
rfingers 7.12502
rthumb 9.06454 -34.3572
lclavicle 1.64246e-014 7.15625e-015
lhumerus -43.5555 3.2437 81.6447
lradius 36.0838
lwrist 12.6984
lhand -13.0336 0.615478
lfingers 7.12502
lthumb 13.0608 30.1865
rfemur -6.63889 -3.68857 32.1835
rtibia 21.9968
rfoot -13.0307 -12.743
rtoes 1.30586
lfemur -27.5524 -1.84283 -9.01821
ltibia 38.4399
lfoot -12.2868 6.07453
ltoes -18.013
386
root 0.512637 18.0425 -21.7649 0.997339 7.5977 -5.96245
lowerback 5.34351 0.846031 5.60348
upperback -0.526567 1.63252 3.75268
thorax -3.50374 0.742778 0.606499
lowerneck -19.3403 0.141367 5.38457
upperneck 24.1061 -0.0204812 -5.36195
head 10.9862 -0.179803 -2.86202
rclavicle 5.73991e-014 5.80451e-014
rhumerus -38.6604 -6.43881 -76.9468
rradius 40.9797
rwrist -13.6213
rhand -17.2263 -4.52392
rfingers 7.12502
rthumb 9.01697 -34.3112
lclavicle 5.73991e-014 5.80451e-014
lhumerus -43.762 3.03379 81.7887
lradius 36.1625
lwrist 12.7234
lhand -12.9758 0.636337
lfingers 7.12502
lthumb 13.1166 30.2038
rfemur -6.27809 -3.5628 32.2118
rtibia 21.5276
rfoot -12.8371 -12.9547
rtoes 1.25878
lfemur -27.9446 -1.98459 -9.09294
ltibia 37.3406
lfoot -12.264 6.14084
ltoes -18.1859
387
root 0.513728 18.0501 -21.7339 0.984736 7.64094 -5.976
lowerback 5.35142 0.901703 5.63562
upperback -0.531758 1.70956 3.74481
thorax -3.51022 0.780153 0.574141
lowerneck -19.4066 0.095958 5.30007
upperneck 24.2302 -0.0799322 -5.27997
head 11.0417 -0.203704 -2.83033
rclavicle 2.57675e-014 2.62396e-014
rhumerus -38.5724 -6.3665 -76.9471
rradius 41.1198
rwrist -13.6286
rhand -17.2778 -4.47021
rfingers 7.12502
rthumb 8.96729 -34.2596
lclavicle 2.57675e-014 2.62396e-014
lhumerus -43.9901 2.81905 81.9294
lradius 36.2335
lwrist 12.7664
lhand -12.8932 0.624063
lfingers 7.12502
lthumb 13.1962 30.1864
rfemur -5.92212 -3.41341 32.2589
rtibia 21.0373
rfoot -12.6286 -13.1909
rtoes 1.22911
lfemur -28.3521 -2.15076 -9.14717
ltibia 36.2748
lfoot -12.2372 6.25683
ltoes -18.2449
388
root 0.5151 18.0576 -21.7027 0.969108 7.69696 -6.00003
lowerback 5.35923 0.955308 5.67973
upperback -0.542727 1.78502 3.73688
thorax -3.52228 0.816323 0.535171
lowerneck -19.3401 0.0941039 5.28643
upperneck 24.1301 -0.0912236 -5.22861
head 10.991 -0.203674 -2.80735
rclavicle -1.55301e-014 -3.89618e-014
rhumerus -38.5158 -6.29699 -76.9435
rradius 41.2791
rwrist -13.6284
rhand -17.3311 -4.36154
rfingers 7.12502
rthumb 8.91588 -34.1532
lclavicle -1.55301e-014 -3.89618e-014
lhumerus -44.2304 2.59249 82.0699
lradius 36.302
lwrist 12.8033
lhand -12.8194 0.63132
lfingers 7.12502
lthumb 13.2673 30.1891
rfemur -5.55022 -3.25552 32.3211
rtibia 20.5249
rfoot -12.4122 -13.4482
rtoes 1.21225
lfemur -28.76 -2.34259 -9.18501
ltibia 35.2528
lfoot -12.1834 6.41453
ltoes -18.2102
